<svg width="500" height="500" xmlns="http://www.w3.org/2000/svg">
  <path fill="$fillColor" d="M243.879 196.934c-1.382 4.426-2.009 9.721-4.727 13.547-2.252 3.168-7.012 5.344-8.23 9.13-1.856 5.795 12.412 22.632 18.581 21.034 3.616-.934 3.948-6.839 5.497-9.608 1.88-3.37 6.403-5.795 6.97-9.77.842-5.947-12.57-22.707-18.094-24.333m125.636 1.948c-2.493 8.02-13.328 12.801-14.208 20.453-.569 4.942 12.528 22.844 18.018 21.274 4.763-1.364 5.28-7.77 7.724-11.258 1.842-2.63 5.953-5.07 5.35-8.766-1.12-6.893-11.06-15.835-14.937-21.703h-1.947m-1.906 12.278c11.53-4.343 17.494 14.627 6.593 18.16-10.4 3.37-17.379-14.091-6.593-18.16m-122.75.882c11.042-2.745 12.77 14.914 2.83 16.667-9.499 1.674-12.862-14.171-2.83-16.664" />
</svg>