<svg width="500" height="500" xmlns="http://www.w3.org/2000/svg">
  <path fill="$fillColor" d="M236.732 203.521c-.26-.012-.446.036-.543.15-2.798 3.333 5.726 11.044 11.655 15.768 2.818 2.247 2.514 5.065-.742 6.61-5.363 2.544-12.904 6.475-16.262 9.887-1.305 1.325-.742 4.33 1.053 4.746 8.552 1.984 29.944-11.495 29.933-19.272-.006-3.994-21.174-17.707-25.094-17.889zm147.516.395c-3.92.182-25.088 13.895-25.094 17.889-.012 8.884 27.914 25.212 32.71 17.418-.492-5.669-23.936-15.461-23.936-15.461s21.039-14.723 16.863-19.696c-.097-.115-.282-.162-.543-.15z" />
</svg>