<svg width="500" height="500" xmlns="http://www.w3.org/2000/svg">
  <path fill="$fillColor" d="M439.728 392.798c5.443 27.2-42.265 37.733-42.841 6.496-15.354-13.966-40.515-2.776-59.983-6.171-21.623-3.234-39.498 6.05-44.306 27.996-17.194 17.915-30.02-6.01-35.438-20.025-17.68-7.358-39.149-8.535-57.219-9.635-17.67 3.715-45.986-1.859-49.89 22.346-15.749 17.447-16.632-25.072-37.283-15.397-13.43 8.962-30.83 31.31-45.168 8.445-8.39-21.66-2.305-46.29-1.44-68.942-1.937-21.592 8.051-41.791 17.862-60.478 9.635-11.035 18.31-44.56 35.397-33.269 11.93 19.688 34.192 42.194 59.14 30.215 19.483-14.945 22.894-42.194 30.121-64.317 2.494-19.66 10.763-41.246 14.92-58.136-15.582 24.939-10.79 56.513-24.66 82.282-4.107 20.784-19.575 46.992-44.693 38.876-23.093-6.958-35.063-30.67-36.491-53.316-6.636-21.58-13.402-44.886-11.66-66.894-2.426-22.692 5.966-47.175 29.346-56.05 18.095-13.616 38.61-15.893 60.168-11.782 17.256-.549 34.623-6.057 53.09-7.54 38.6-1.627 77.994-7.622 115.94 2.657 30.94 6.175 65.392.372 92.768 19.133 1.695-5.254-25.515-17.116-38.365-16.422-42.804-1.756-84.41-17.014-127.573-12.733-31.063 1.757-62.269 3.857-92.653 10.651-22.845-2.159-47.359-2.73-66.74 11.717-16.338 10.694-35.285 27.794-29.26 49.474 1.943 23.327-3.203 48.09 8.188 69.827 7.817 18.669-17.131 46.104-35.967 33.114-19.269-9.139-29.672-29.244-40.13-46.664-20.651-11.044-23.864 30.515-20.27 44.874 7.84 10.973 13.705 24.408-4.57 25.124-6.908 24.554 20.577 39.019 40.397 43.786 21.45 12.039 6.98 44.084 8.665 64.345-3.906 17.206 2.113 41.813 22.931 43.529 19.548 8.228 24.071-14.018 36.897-18.848 11.568 5.4 17.618 36.392 33.929 16.202 8.2-23.87 37.07-23.355 57.826-22.423 16.156.936 40.453 1.11 44.573 20.952 5.762 17.649 41.057 20.641 47.355 2.946 1.032-28.935 36.773-20.887 56.268-21.119 15.824-.257 39.291-5.629 39.102 17.826 15.49 16.084 49.465 1.192 43.687-22.634m18.808-292.464c8.225 9.929 19.824 17.788 22.482 31.13 2.698 6.41 1.397 13.663 2.326 20.447 3.473-18.098-5.133-43.458-24.808-51.577zm-73.334 50.583c10.068 21.357 13.646 44.285 18.618 67.306 8.24 19.83 9.96 43.541 27.968 57.894 25.168 3.482 18.805 28.554 12.553 46.181-5.994 19.685-14.514 40.146-7.921 60.89 7.268 25.527-4.855-23.386 3.401-31.363 9.564-16.196 14.105-34.245 14.908-52.96.734-24 26.376-36.261 29.477-59.585 7.336-28.557 5.483-58.657.117-87.384-4.665 17.094.15 38.557-.105 57.327 1.11 26.19-7.543 57.015-32.336 69.816-21.84 1.205-31.717-25.208-37.894-42.188-5.567-19.551-14.694-37.891-14.53-58.728-3.507-7.82-5.158-26.249-14.256-27.206M29.297 204.182c12.95 9.765 17.863 29.502 32.386 39.329 16.171 6.028 39.52 16.564 17.175 34.467-5.91 18.235-17.277 42.46-39.985 26.869-13.74-7.977-37.175-31.686-12.934-39.8-5.762-17.918-13.885-47.847 3.358-60.865z" />
</svg>