<svg width="500" height="500" xmlns="http://www.w3.org/2000/svg">
  <path fill="$fillColor" d="M105.26 125.443c-1.57 30.725-2.26 61.4 10.698 91.333.253 14.739-6.867 27.372-25.433 36.735-32.37-10.495-45.843-32.504-61.662-53.084-18.508 4.587-12.112 33.559-5.37 62.87-18.136 12.352-10.137 23.597 3.15 34.618 9.082 10.113 24.93 14.93 39.964 20.386-5.25 51.835-17.036 110.4 24.423 99.91l25.835-18.805c9.89-.04 14.913 21.043 25.133 21.246 8.473.169 16.184-20.57 24.62-22.856 25.554-6.924 85.536-2.963 86.818 5.107 3.67 23.114 27.643 37.022 44.681 17.131 6.624-7.733 4.815-20.146 14.026-21.808 19.033-3.434 47.611-2.095 72.425-2.57 10.278-.197 13.411 16.188 17.352 21.205 10.956 13.95 34.757-5.962 38.494-13.485 1.542-12.547-1.158-25.095-2.018-37.643l16.954-80.735c12.954-15.716 27.338-30.307 33.102-51.671.441-96.347-4.333-107.193-17.056-123.728-28.836-28.996-67.318-26.505-110.608-31.588-46.265-10.546-71.912-3.513-108.791-3.23-19.924 2.426-31.677 4.531-53.694 7.803-5.706.848-17.927-1.767-30.452-.435-20.333 2.163-43.114 10.107-52.412 25.698z" />
</svg>